<svg width="24" height="24" viewBox="0 0 24 24" fill="none" xmlns="http://www.w3.org/2000/svg">
<path d="M5.81224 5.42816C6.69784 5.42816 7.41957 6.16429 7.41957 7.06756C7.41957 7.97083 6.69784 8.70696 5.81224 8.70696C5.38614 8.70631 4.97768 8.53338 4.67638 8.22607C4.37509 7.91877 4.20554 7.50216 4.2049 7.06756C4.2049 6.16429 4.92543 5.42816 5.81224 5.42816ZM5.81224 4.19922C5.06654 4.19906 4.35133 4.50103 3.82393 5.03872C3.29654 5.57641 3.00016 6.30576 3 7.06633C2.99984 7.8269 3.29591 8.55638 3.82308 9.0943C4.35025 9.63222 5.06534 9.93451 5.81103 9.93467C6.55672 9.93483 7.27194 9.63286 7.79933 9.09517C8.32673 8.55748 8.62311 7.82813 8.62327 7.06756C8.62343 6.30699 8.32736 5.57751 7.80019 5.03959C7.27302 4.50167 6.55793 4.19938 5.81224 4.19922ZM18.1878 5.42816C19.0746 5.42816 19.7963 6.16429 19.7963 7.06756C19.7963 7.97083 19.0746 8.70696 18.1878 8.70696C17.7617 8.70631 17.3532 8.53338 17.0519 8.22607C16.7506 7.91877 16.5811 7.50216 16.5804 7.06756C16.5804 6.16429 17.301 5.42816 18.1878 5.42816ZM18.1878 4.19922C17.8185 4.19922 17.4528 4.27341 17.1116 4.41756C16.7704 4.56171 16.4604 4.77299 16.1992 5.03934C15.9381 5.30569 15.7309 5.62189 15.5896 5.96989C15.4483 6.3179 15.3755 6.69088 15.3755 7.06756C15.3755 7.44424 15.4483 7.81722 15.5896 8.16523C15.7309 8.51323 15.9381 8.82943 16.1992 9.09578C16.4604 9.36213 16.7704 9.57341 17.1116 9.71756C17.4528 9.86171 17.8185 9.9359 18.1878 9.9359C18.9336 9.9359 19.6489 9.6337 20.1763 9.09578C20.7037 8.55786 21 7.82829 21 7.06756C21 6.30683 20.7037 5.57725 20.1763 5.03934C19.6489 4.50142 18.9336 4.19922 18.1878 4.19922ZM11.9994 16.4911C12.4127 16.511 12.8025 16.6926 13.088 16.9979C13.3736 17.3033 13.5329 17.7091 13.5329 18.1311C13.5329 18.5531 13.3736 18.9588 13.088 19.2642C12.8025 19.5696 12.4127 19.7511 11.9994 19.7711C11.5733 19.7704 11.1648 19.5975 10.8635 19.2902C10.5622 18.9829 10.3927 18.5663 10.3921 18.1317C10.3927 17.697 10.5622 17.2802 10.8635 16.9727C11.1647 16.6652 11.5732 16.492 11.9994 16.4911ZM11.9994 15.2621C11.2534 15.2621 10.5379 15.5644 10.0104 16.1024C9.48291 16.6404 9.18656 17.3702 9.18656 18.1311C9.18656 18.892 9.48291 19.6217 10.0104 20.1597C10.5379 20.6978 11.2534 21 11.9994 21C12.3686 21 12.7343 20.9258 13.0754 20.7817C13.4165 20.6375 13.7265 20.4262 13.9875 20.1598C14.2486 19.8935 14.4556 19.5773 14.5968 19.2293C14.738 18.8813 14.8106 18.5083 14.8104 18.1317C14.8109 17.7549 14.7385 17.3818 14.5975 17.0335C14.4564 16.6853 14.2494 16.3689 13.9883 16.1024C13.7272 15.8359 13.4172 15.6244 13.0759 15.4803C12.7346 15.3361 12.3688 15.262 11.9994 15.2621Z" fill="#4171FE" stroke="#4171FE" stroke-width="0.6"/>
<path d="M7.3351 17.9535C7.19947 17.9536 7.0678 17.9068 6.96158 17.8208C5.99945 17.0493 5.22213 16.0645 4.68854 14.9411C4.15495 13.8177 3.87909 12.5852 3.88186 11.3369C3.88186 10.5135 4.00114 9.69995 4.23489 8.9208C4.28187 8.765 4.3876 8.63462 4.52882 8.55834C4.67005 8.48205 4.83521 8.46611 4.98795 8.51402C5.1407 8.56194 5.26854 8.66978 5.34333 8.81382C5.41812 8.95786 5.43375 9.12631 5.38678 9.28211C5.1872 9.94802 5.08608 10.6406 5.08676 11.3369C5.08676 13.4986 6.04224 15.5116 7.70982 16.8585C7.80747 16.9379 7.87852 17.0462 7.91315 17.1686C7.94778 17.291 7.94428 17.4213 7.90313 17.5415C7.86198 17.6618 7.78522 17.766 7.68345 17.8398C7.58169 17.9136 7.45996 17.9533 7.3351 17.9535ZM14.5115 19.1492C14.3703 19.148 14.2339 19.0962 14.1263 19.003C14.0186 18.9098 13.9463 18.7811 13.9221 18.6391C13.8979 18.4972 13.9232 18.3512 13.9937 18.2263C14.0642 18.1015 14.1754 18.0058 14.3079 17.956C15.6438 17.465 16.7989 16.5663 17.6162 15.3819C18.4335 14.1976 18.8733 12.7852 18.8756 11.3369C18.8756 11.1739 18.9391 11.0176 19.0521 10.9024C19.1651 10.7872 19.3183 10.7224 19.4781 10.7224C19.6379 10.7224 19.7911 10.7872 19.9041 10.9024C20.0171 11.0176 20.0805 11.1739 20.0805 11.3369C20.0779 13.0383 19.5614 14.6976 18.6014 16.0891C17.6414 17.4806 16.2844 18.5366 14.7151 19.1136C14.6496 19.1367 14.5808 19.1488 14.5115 19.1492ZM16.7189 5.93571C16.58 5.93595 16.4454 5.88685 16.3381 5.79684C14.4886 4.25698 11.8547 3.81211 9.63284 4.63427C9.48463 4.68109 9.32443 4.66791 9.18549 4.59746C9.04656 4.52701 8.93955 4.4047 8.88669 4.25591C8.83383 4.10712 8.83916 3.94328 8.9016 3.7984C8.96403 3.65352 9.07876 3.53873 9.22197 3.47784C11.8342 2.51066 14.9284 3.03419 17.1008 4.84442C17.1968 4.92492 17.2661 5.03367 17.2993 5.15584C17.3324 5.27801 17.3278 5.40764 17.286 5.52702C17.2442 5.64639 17.1673 5.74971 17.0658 5.82286C16.9643 5.89601 16.8431 5.93542 16.7189 5.93571Z" fill="#4171FE" stroke="#4171FE" stroke-width="0.6"/>
</svg>
